# xmcd CD database file
#
# Track frame offsets:
#	187
#	18199
#	32379
#	48599
#	62659
#	75362
#	91949
#	107004
#	120929
#	136542
#	149224
#	164924
#
# Disc length: 2386 seconds
#
# Revision: 0
# Processed by: cddbd v1.5PL3 Copyright (c) Steve Scherf et al.
# Submitted via: CDex 1.50beta10
#
DISCID=9309500c
DTITLE=Grupo Aymara - Concierto En Los Andes de Bolivia
DYEAR=1900
DGENRE=Folklore
TTITLE0=Mi Raza
TTITLE1=Karwan Choquelas
TTITLE2=k'allampitas
TTITLE3=Sicuri No.2
TTITLE4=Cielo Rojo
TTITLE5=Mi Quena
TTITLE6=Cerro Rojo
TTITLE7=Mi Balsita
TTITLE8=Waka Pinquillo 
TTITLE9=Mis Suenos
TTITLE10=Anocheciendo
TTITLE11=Cuando Me Vaya
EXTD=
EXTT0=
EXTT1=
EXTT2=
EXTT3=
EXTT4=
EXTT5=
EXTT6=
EXTT7=
EXTT8=
EXTT9=
EXTT10=
EXTT11=
PLAYORDER=
